<?xml version="1.0" encoding="UTF-8" standalone="no"?>
<svg
   width="32"
   height="32"
   viewBox="0 0 8.4666666 8.4666669"
   version="1.1"
   id="svg5"
   sodipodi:docname="c++.svg"
   xml:space="preserve"
   inkscape:version="1.2.2 (b0a8486541, 2022-12-01)"
   xmlns:inkscape="http://www.inkscape.org/namespaces/inkscape"
   xmlns:sodipodi="http://sodipodi.sourceforge.net/DTD/sodipodi-0.dtd"
   xmlns="http://www.w3.org/2000/svg"
   xmlns:svg="http://www.w3.org/2000/svg"><sodipodi:namedview
     id="namedview7"
     pagecolor="#ffffff"
     bordercolor="#666666"
     borderopacity="1.0"
     inkscape:pageshadow="2"
     inkscape:pageopacity="0.0"
     inkscape:pagecheckerboard="0"
     inkscape:document-units="px"
     showgrid="false"
     units="px"
     inkscape:zoom="19.286103"
     inkscape:cx="15.995974"
     inkscape:cy="13.947867"
     inkscape:window-width="1920"
     inkscape:window-height="1011"
     inkscape:window-x="1920"
     inkscape:window-y="32"
     inkscape:window-maximized="1"
     inkscape:current-layer="layer1"
     inkscape:showpageshadow="2"
     inkscape:deskcolor="#d1d1d1"><inkscape:grid
       type="xygrid"
       id="grid8781"
       originx="0"
       originy="0"
       spacingy="1"
       spacingx="1"
       units="px"
       visible="false" /></sodipodi:namedview><defs
     id="defs2" /><g
     inkscape:label="Layer 1"
     inkscape:groupmode="layer"
     id="layer1"><g
       id="g10322"><g
         id="g10311"><path
           sodipodi:type="star"
           style="fill:#649ad2;stroke-width:0.264583;stroke-linecap:round;stroke-linejoin:round;paint-order:stroke markers fill;fill-opacity:1"
           id="path353"
           inkscape:flatsided="true"
           sodipodi:sides="6"
           sodipodi:cx="-2.4140773"
           sodipodi:cy="1.8101805"
           sodipodi:r1="2.2816441"
           sodipodi:r2="1.9759616"
           sodipodi:arg1="-1.5707963"
           sodipodi:arg2="-1.0471976"
           inkscape:rounded="0"
           inkscape:randomized="0"
           d="m -2.4140772,-0.47146356 1.97596171,1.1408221 -6e-8,2.28164416 -1.97596175,1.140822 -1.9759618,-1.1408222 1e-7,-2.28164406 z"
           transform="matrix(1.8553997,0,0,1.8553872,8.7124117,0.87474746)" /><path
           id="path909"
           style="fill:#004482;stroke-width:0.264583;stroke-linecap:round;stroke-linejoin:round;paint-order:stroke markers fill;fill-opacity:1"
           d="M -2.4140773 1.8101806 C -3.0421956 2.1727855 -3.6870728 2.5450662 -4.3901706 2.9510027 L -2.4140773 4.0918248 L -0.43826254 2.9510027 C -1.1747399 2.5257944 -1.7860819 2.1727981 -2.4140773 1.8101806 z "
           transform="matrix(1.8553997,0,0,1.8553872,8.7124117,0.87474746)" /><path
           id="path1070"
           style="fill:#00589c;stroke-width:0.264583;stroke-linecap:round;stroke-linejoin:round;paint-order:stroke markers fill;fill-opacity:1"
           d="M -0.43798402 0.66935852 C -1.1745959 1.0946444 -1.7859591 1.4475757 -2.4140773 1.8101806 C -1.7860813 2.1727985 -1.1747406 2.525794 -0.43826254 2.9510027 L -0.43798402 2.9510027 L -0.43798402 0.66935852 z "
           transform="matrix(1.8553997,0,0,1.8553872,8.7124117,0.87474746)" /></g><g
         id="g10306"><path
           style="fill:#ffffff;fill-opacity:1;stroke:none;stroke-width:2.79283;stroke-linecap:round;stroke-linejoin:round;stroke-dasharray:none;paint-order:stroke markers fill"
           d="M 4.2333334,1.7197917 A 2.5135417,2.5135417 0 0 0 1.7197917,4.2333334 2.5135417,2.5135417 0 0 0 4.2333334,6.7468751 2.5135417,2.5135417 0 0 0 6.4099447,5.4901042 l -1.1467,-0.6619751 A 1.190625,1.190625 0 0 1 4.2333334,5.4239584 1.190625,1.190625 0 0 1 3.0427084,4.2333334 1.190625,1.190625 0 0 1 4.2333334,3.0427084 1.190625,1.190625 0 0 1 5.2642782,3.6380209 L 6.4099447,2.9765625 A 2.5135417,2.5135417 0 0 0 4.2333334,1.7197917 Z"
           id="path5740" /><g
           id="g9574"><path
             id="rect8760"
             style="fill:#ffffff;fill-opacity:1;stroke:none;stroke-width:0.767084;stroke-linecap:round;stroke-linejoin:round;stroke-dasharray:none;paint-order:stroke markers fill"
             d="M 6.0854167 3.8364584 L 6.0854167 4.1010417 L 5.8208334 4.1010417 L 5.8208334 4.365625 L 6.0854167 4.365625 L 6.0854167 4.6302084 L 6.3500001 4.6302084 L 6.3500001 4.365625 L 6.6145834 4.365625 L 6.6145834 4.1010417 L 6.3500001 4.1010417 L 6.3500001 3.8364584 L 6.0854167 3.8364584 z " /><path
             id="path9557"
             style="fill:#ffffff;fill-opacity:1;stroke:none;stroke-width:0.767084;stroke-linecap:round;stroke-linejoin:round;stroke-dasharray:none;paint-order:stroke markers fill"
             d="M 7.1437497,3.836458 V 4.1010413 H 6.8791664 V 4.3656246 H 7.1437497 V 4.630208 H 7.4083331 V 4.3656246 H 7.6729164 V 4.1010413 H 7.4083331 V 3.836458 Z" /></g></g></g></g></svg>
