<?xml version="1.0" encoding="UTF-8" standalone="no"?>
<svg
   width="32"
   height="32"
   viewBox="0 0 8.4666666 8.4666669"
   version="1.1"
   id="svg5"
   sodipodi:docname="c.svg"
   xml:space="preserve"
   inkscape:version="1.2.2 (b0a8486541, 2022-12-01)"
   xmlns:inkscape="http://www.inkscape.org/namespaces/inkscape"
   xmlns:sodipodi="http://sodipodi.sourceforge.net/DTD/sodipodi-0.dtd"
   xmlns="http://www.w3.org/2000/svg"
   xmlns:svg="http://www.w3.org/2000/svg"><sodipodi:namedview
     id="namedview7"
     pagecolor="#ffffff"
     bordercolor="#666666"
     borderopacity="1.0"
     inkscape:pageshadow="2"
     inkscape:pageopacity="0.0"
     inkscape:pagecheckerboard="0"
     inkscape:document-units="px"
     showgrid="false"
     units="px"
     inkscape:zoom="16.610807"
     inkscape:cx="9.8429896"
     inkscape:cy="13.003583"
     inkscape:window-width="1920"
     inkscape:window-height="1011"
     inkscape:window-x="1920"
     inkscape:window-y="32"
     inkscape:window-maximized="1"
     inkscape:current-layer="layer1"
     inkscape:showpageshadow="2"
     inkscape:deskcolor="#d1d1d1"><inkscape:grid
       type="xygrid"
       id="grid8781" /></sodipodi:namedview><defs
     id="defs2" /><g
     inkscape:label="Layer 1"
     inkscape:groupmode="layer"
     id="layer1"><path
       sodipodi:type="star"
       style="fill:#86929e;fill-opacity:1;stroke-width:0.264583;stroke-linecap:round;stroke-linejoin:round;paint-order:stroke markers fill"
       id="path353"
       inkscape:flatsided="true"
       sodipodi:sides="6"
       sodipodi:cx="-2.4140773"
       sodipodi:cy="1.8101805"
       sodipodi:r1="2.2816441"
       sodipodi:r2="1.9759616"
       sodipodi:arg1="-1.5707963"
       sodipodi:arg2="-1.0471976"
       inkscape:rounded="0"
       inkscape:randomized="0"
       d="m -2.4140772,-0.47146356 1.97596171,1.1408221 -6e-8,2.28164416 -1.97596175,1.140822 -1.9759618,-1.1408222 1e-7,-2.28164406 z"
       transform="matrix(1.8553997,0,0,1.8553872,8.7124117,0.87474746)" /><path
       id="path909"
       style="fill:#405161;fill-opacity:1;stroke-width:0.490906;stroke-linecap:round;stroke-linejoin:round;paint-order:stroke markers fill"
       d="M 4.2333334 4.2333334 C 3.067923 4.9061058 1.8714179 5.5968308 0.56689047 6.3500001 L 4.2333334 8.4666667 L 7.8992595 6.3500001 C 6.5327997 5.5610741 5.3985158 4.9061293 4.2333334 4.2333334 z " /><path
       id="path1070"
       style="fill:#788690;fill-opacity:1;stroke-width:0.490906;stroke-linecap:round;stroke-linejoin:round;paint-order:stroke markers fill"
       d="M 7.8997763,2.1166667 C 6.5330668,2.9057367 5.3987437,3.5605609 4.2333334,4.2333334 5.398517,4.90613 6.5327983,5.5610733 7.8992595,6.3500001 h 5.168e-4 z" /><path
       style="fill:#ffffff;fill-opacity:1;stroke:none;stroke-width:2.79283;stroke-linecap:round;stroke-linejoin:round;stroke-dasharray:none;paint-order:stroke markers fill"
       d="M 4.2333334,1.7197917 A 2.5135417,2.5135417 0 0 0 1.7197917,4.2333334 2.5135417,2.5135417 0 0 0 4.2333334,6.7468751 2.5135417,2.5135417 0 0 0 6.4099447,5.4901042 l -1.1467,-0.6619751 A 1.190625,1.190625 0 0 1 4.2333334,5.4239584 1.190625,1.190625 0 0 1 3.0427084,4.2333334 1.190625,1.190625 0 0 1 4.2333334,3.0427084 1.190625,1.190625 0 0 1 5.2642782,3.6380209 L 6.4099447,2.9765625 A 2.5135417,2.5135417 0 0 0 4.2333334,1.7197917 Z"
       id="path5740" /></g></svg>
